<?xml version="1.0" standalone="no"?>
<!DOCTYPE svg PUBLIC "-//W3C//DTD SVG 20010904//EN"
 "http://www.w3.org/TR/2001/REC-SVG-20010904/DTD/svg10.dtd">
<svg version="1.0" xmlns="http://www.w3.org/2000/svg"
 width="512.000000pt" height="512.000000pt" viewBox="0 0 512.000000 512.000000"
 preserveAspectRatio="xMidYMid meet">
<metadata>
Created by potrace 1.14, written by Peter Selinger 2001-2017
</metadata>
<g transform="translate(0.000000,512.000000) scale(0.100000,-0.100000)"
fill="#000000" stroke="none">
<path d="M0 2560 l0 -2560 2560 0 2560 0 0 2560 0 2560 -2560 0 -2560 0 0
-2560z m4373 1231 c163 -58 261 -197 287 -406 24 -197 -30 -377 -148 -487 -86
-81 -188 -118 -324 -118 -308 0 -481 188 -480 520 0 274 110 445 322 502 89
25 261 19 343 -11z m-3358 -3 c73 -22 106 -41 152 -91 50 -54 67 -103 67 -187
0 -167 -95 -278 -271 -315 -37 -8 -96 -15 -130 -15 l-63 0 0 -135 c0 -165 5
-175 100 -175 l60 0 0 -40 0 -40 -257 2 -258 3 0 35 c0 35 0 35 53 40 31 3 57
12 62 20 18 29 21 100 18 446 -3 330 -4 353 -22 373 -14 16 -31 21 -68 21 -48
0 -48 0 -48 33 0 19 3 37 8 41 13 14 542 0 597 -16z m840 -10 c8 -18 80 -217
160 -443 123 -350 149 -414 175 -437 19 -18 42 -28 61 -28 29 0 30 -2 27 -37
l-3 -38 -232 -3 -233 -2 0 40 c0 39 1 40 36 40 83 0 92 34 46 170 l-29 85
-173 0 -174 0 -28 -85 c-15 -47 -27 -96 -28 -109 0 -39 27 -61 77 -61 l43 0 0
-40 0 -40 -182 2 -183 3 0 35 c0 31 3 35 33 41 68 14 55 -13 257 537 l148 402
94 0 93 0 15 -32z m984 -305 c63 -183 117 -333 120 -333 4 0 56 150 117 333
l111 332 199 0 199 0 3 -37 3 -38 -43 0 c-24 0 -54 -7 -66 -16 l-22 -15 0
-396 c0 -453 -4 -433 82 -433 l49 0 -3 -37 -3 -38 -225 0 -225 0 -3 38 c-3 36
-2 37 30 37 19 0 43 6 54 14 18 14 19 31 22 388 2 225 -1 369 -6 363 -5 -6
-71 -198 -146 -427 l-137 -418 -47 0 -48 0 -144 421 c-79 231 -148 423 -152
426 -5 3 -8 -155 -6 -361 3 -409 0 -393 77 -403 40 -6 41 -7 41 -44 l0 -39
-175 0 -175 0 0 40 0 40 43 0 c24 0 52 6 63 14 18 14 19 30 19 416 0 386 -1
402 -19 416 -11 8 -39 14 -63 14 l-43 0 0 40 0 40 203 -2 202 -3 114 -332z
m1909 -875 c15 -15 15 -61 0 -76 -17 -17 -4339 -17 -4356 0 -7 7 -12 24 -12
38 0 14 5 31 12 38 17 17 4339 17 4356 0z m-2984 -324 c4 -10 72 -202 152
-428 81 -226 153 -423 160 -438 16 -30 61 -58 94 -58 16 0 20 -6 20 -35 l0
-35 -235 0 -235 0 0 35 c0 32 2 35 29 35 44 0 78 16 86 39 4 13 -7 62 -27 121
l-32 100 -175 -2 -175 -3 -28 -85 c-15 -47 -27 -94 -28 -106 0 -36 23 -56 73
-61 46 -5 47 -7 47 -39 l0 -34 -180 0 -180 0 0 35 c0 25 4 35 15 35 32 0 75
32 93 68 11 20 88 225 172 455 l153 417 98 0 c81 0 98 -3 103 -16z m1101 -13
c148 -58 217 -209 170 -368 -42 -141 -160 -213 -378 -229 l-79 -6 4 -134 c4
-161 7 -166 103 -172 l65 -4 0 -34 0 -34 -260 0 -260 0 0 35 c0 34 1 35 40 35
30 0 47 7 65 25 l25 24 0 383 c0 442 3 428 -81 428 l-49 0 0 41 0 41 288 -4
c273 -4 290 -5 347 -27z m847 15 c81 -18 117 -36 164 -83 55 -55 77 -114 77
-203 0 -94 -28 -163 -88 -219 -75 -69 -144 -94 -297 -106 l-78 -7 0 -131 c0
-73 4 -137 8 -143 14 -22 51 -34 101 -34 l51 0 0 -35 0 -35 -260 0 -260 0 0
34 c0 33 1 34 50 38 85 8 80 -21 80 434 0 311 -3 405 -12 411 -7 4 -35 10 -63
13 -49 5 -50 5 -53 43 l-3 37 258 0 c183 0 277 -4 325 -14z"/>
<path d="M4107 3715 c-52 -18 -82 -48 -111 -109 -64 -136 -70 -406 -15 -575
43 -128 146 -185 271 -151 119 33 171 162 171 420 0 154 -15 246 -52 319 -48
94 -159 134 -264 96z"/>
<path d="M770 3489 l0 -232 56 7 c108 12 149 54 167 167 13 84 -1 188 -31 228
-27 38 -80 61 -139 61 l-53 0 0 -231z"/>
<path d="M1625 3439 c-38 -116 -71 -214 -73 -220 -2 -5 53 -9 137 -9 78 0 141
2 141 5 0 7 -120 395 -128 417 -5 10 -32 -59 -77 -193z"/>
<path d="M1533 1914 l-71 -214 139 0 c76 0 139 3 139 6 0 4 -20 68 -44 143
-24 75 -52 165 -61 201 -10 36 -21 68 -24 71 -3 4 -38 -89 -78 -207z"/>
<path d="M2588 2204 c-5 -4 -8 -108 -8 -232 l0 -224 65 4 c73 4 108 24 140 79
17 29 20 52 20 149 0 129 -14 169 -71 202 -32 19 -134 35 -146 22z"/>
<path d="M3490 1981 l0 -231 48 0 c74 1 125 29 153 86 33 68 34 216 2 286 -25
56 -56 74 -141 84 l-62 7 0 -232z"/>
</g>
</svg>
